Pontano-Medium.ufo
<glyph name="exclam" format="1">
  <advance width="428"/>
  <unicode hex="0021"/>
  <outline>
    <contour>
      <point x="123" y="0" type="line"/>
      <point x="326" y="0" type="line"/>
      <point x="326" y="209" type="line"/>
      <point x="123" y="209" type="line"/>
    </contour>
    <contour>
      <point x="183" y="344" type="line"/>
      <point x="264" y="344" type="line"/>
      <point x="341" y="1464" type="line"/>
      <point x="97" y="1464" type="line"/>
    </contour>
  </outline>
</glyph>
<glyph name="quotedbl" format="1">
  <advance width="510"/>
  <unicode hex="0022"/>
  <outline>
    <contour>
      <point x="48" y="961" type="line"/>
      <point x="129" y="961" type="line"/>
      <point x="195" y="1503" type="line"/>
      <point x="-20" y="1503" type="line"/>
    </contour>
    <contour>
      <point x="381" y="961" type="line"/>
      <point x="462" y="961" type="line"/>
      <point x="529" y="1503" type="line"/>
      <point x="314" y="1503" type="line"/>
    </contour>
  </outline>
</glyph>
<glyph name="three" format="1">
  <advance width="1215"/>
  <unicode hex="0033"/>
  <outline>
    <contour>
      <point x="594.219" y="139.855" type="curve" smooth="yes"/>
      <point x="435.39" y="139.855"/>
      <point x="365.082" y="227.843"/>
      <point x="315" y="374" type="curve"/>
      <point x="141" y="316" type="line"/>
      <point x="202" y="68"/>
      <point x="380" y="-24"/>
      <point x="599" y="-24" type="curve" smooth="yes"/>
      <point x="599.695" y="-24.0023"/>
      <point x="600.39" y="-24.0034"/>
      <point x="601.084" y="-24.0034" type="curve" smooth="yes"/>
      <point x="908.179" y="-24.0034"/>
      <point x="1068.01" y="196.321"/>
      <point x="1068.01" y="403.596" type="curve" smooth="yes"/>
      <point x="1068.01" y="580.392"/>
      <point x="994.518" y="756.431"/>
      <point x="776" y="820" type="curve"/>
      <point x="944" y="878"/>
      <point x="997" y="1015"/>
      <point x="997" y="1155" type="curve" smooth="yes"/>
      <point x="997" y="1354"/>
      <point x="839" y="1489"/>
      <point x="587" y="1489" type="curve" smooth="yes"/>
      <point x="417" y="1489"/>
      <point x="275" y="1412"/>
      <point x="175" y="1256" type="curve"/>
      <point x="323" y="1167" type="line"/>
      <point x="406" y="1292"/>
      <point x="490" y="1328"/>
      <point x="594" y="1328" type="curve" smooth="yes"/>
      <point x="725" y="1328"/>
      <point x="798" y="1243"/>
      <point x="798" y="1140" type="curve" smooth="yes"/>
      <point x="798" y="1006"/>
      <point x="757" y="888"/>
      <point x="483" y="888" type="curve"/>
      <point x="483" y="731" type="line"/>
      <point x="710.139" y="731"/>
      <point x="860.301" y="662.577"/>
      <point x="860.301" y="415.488" type="curve" smooth="yes"/>
      <point x="860.301" y="268.505"/>
      <point x="789.019" y="139.855"/>
    </contour>
  </outline>
</glyph>
<glyph name="U" format="1">
  <advance width="1383"/>
  <unicode hex="0055"/>
  <outline>
    <contour>
      <point x="691.5" y="1464" type="move" name="top"/>
    </contour>
    <contour>
      <point x="803" y="0" type="move" name="ogonek"/>
    </contour>
    <contour>
      <point x="687" y="-24" type="curve" smooth="yes"/>
      <point x="1071" y="-24"/>
      <point x="1265" y="160"/>
      <point x="1265" y="580" type="curve" smooth="yes"/>
      <point x="1265" y="1464" type="line"/>
      <point x="1060" y="1464" type="line"/>
      <point x="1060" y="593" type="line" smooth="yes"/>
      <point x="1060" y="298"/>
      <point x="991" y="138"/>
      <point x="693" y="138" type="curve" smooth="yes"/>
      <point x="393" y="138"/>
      <point x="323" y="301"/>
      <point x="323" y="593" type="curve" smooth="yes"/>
      <point x="323" y="1464" type="line"/>
      <point x="117" y="1464" type="line"/>
      <point x="117" y="573" type="line" smooth="yes"/>
      <point x="117" y="151"/>
      <point x="317" y="-24"/>
    </contour>
  </outline>
</glyph>
<glyph name="bracketleft" format="1">
  <advance width="708"/>
  <unicode hex="005B"/>
  <outline>
    <contour>
      <point x="132" y="-52" type="line"/>
      <point x="614" y="-52" type="line"/>
      <point x="614" y="99" type="line"/>
      <point x="337" y="99" type="line"/>
      <point x="337" y="1331" type="line"/>
      <point x="614" y="1331" type="line"/>
      <point x="614" y="1480" type="line"/>
      <point x="132" y="1480" type="line"/>
    </contour>
  </outline>
</glyph>
<glyph name="i" format="1">
  <advance width="447"/>
  <unicode hex="0069"/>
  <outline>
    <component base="dotaccent" xOffset="14"/>
    <component base="dotlessi"/>
    <contour>
      <point x="244" y="0" type="move" name="ogonek"/>
    </contour>
  </outline>
</glyph>
<glyph name="m" format="1">
  <advance width="1813"/>
  <unicode hex="006D"/>
  <outline>
    <contour>
      <point x="983" y="1023" type="move" name="top"/>
    </contour>
    <contour>
      <point x="125" y="0" type="line"/>
      <point x="323" y="0" type="line"/>
      <point x="323" y="499" type="line"/>
      <point x="324" y="709"/>
      <point x="386" y="906"/>
      <point x="609" y="906" type="curve" smooth="yes"/>
      <point x="763" y="906"/>
      <point x="812" y="803"/>
      <point x="812" y="602" type="curve" smooth="yes"/>
      <point x="812" y="0" type="line"/>
      <point x="1010" y="0" type="line"/>
      <point x="1010" y="496" type="line" smooth="yes"/>
      <point x="1010" y="709"/>
      <point x="1067" y="906"/>
      <point x="1297" y="906" type="curve" smooth="yes"/>
      <point x="1450" y="906"/>
      <point x="1499" y="803"/>
      <point x="1499" y="602" type="curve" smooth="yes"/>
      <point x="1499" y="0" type="line"/>
      <point x="1697" y="0" type="line"/>
      <point x="1697" y="593" type="line" smooth="yes"/>
      <point x="1697" y="799"/>
      <point x="1660" y="1046"/>
      <point x="1337" y="1046" type="curve" smooth="yes"/>
      <point x="1161" y="1046"/>
      <point x="1044" y="974"/>
      <point x="979" y="837" type="curve"/>
      <point x="938" y="956"/>
      <point x="848" y="1046"/>
      <point x="650" y="1046" type="curve" smooth="yes"/>
      <point x="498" y="1046"/>
      <point x="392" y="987"/>
      <point x="323" y="883" type="curve"/>
      <point x="323" y="1023" type="line"/>
      <point x="125" y="1023" type="line"/>
    </contour>
  </outline>
</glyph>
<glyph name="s" format="1">
  <advance width="927"/>
  <unicode hex="0073"/>
  <outline>
    <contour>
      <point x="463.5" y="1023" type="move" name="top"/>
    </contour>
    <contour>
      <point x="690.023" y="267.147" type="curve" smooth="yes"/>
      <point x="690.023" y="148.867"/>
      <point x="607.847" y="116"/>
      <point x="474" y="116" type="curve" smooth="yes"/>
      <point x="311" y="116"/>
      <point x="259" y="156"/>
      <point x="210" y="284" type="curve"/>
      <point x="65" y="225" type="line"/>
      <point x="117" y="34"/>
      <point x="282" y="-24"/>
      <point x="459" y="-24" type="curve" smooth="yes"/>
      <point x="747" y="-24"/>
      <point x="861" y="85"/>
      <point x="861" y="285" type="curve" smooth="yes"/>
      <point x="861" y="482"/>
      <point x="763" y="544"/>
      <point x="501" y="602" type="curve" smooth="yes"/>
      <point x="332.724" y="638.962"/>
      <point x="279.876" y="656.056"/>
      <point x="279.876" y="752.672" type="curve" smooth="yes"/>
      <point x="279.876" y="861.7"/>
      <point x="323.182" y="906"/>
      <point x="489" y="906" type="curve" smooth="yes"/>
      <point x="616" y="906"/>
      <point x="674" y="875"/>
      <point x="726" y="777" type="curve"/>
      <point x="726" y="778"/>
      <point x="848" y="847"/>
      <point x="848" y="847" type="curve"/>
      <point x="776" y="995"/>
      <point x="663" y="1046"/>
      <point x="482" y="1046" type="curve" smooth="yes"/>
      <point x="250" y="1046"/>
      <point x="95" y="946"/>
      <point x="95" y="761" type="curve" smooth="yes"/>
      <point x="95" y="558"/>
      <point x="191" y="507"/>
      <point x="411" y="457" type="curve" smooth="yes"/>
      <point x="657.149" y="400.878"/>
      <point x="690.023" y="396.136"/>
    </contour>
  </outline>
</glyph>
<glyph name="braceleft" format="1">
  <advance width="644"/>
  <unicode hex="007B"/>
  <outline>
    <contour>
      <point x="624" y="-130" type="curve"/>
      <point x="624" y="-6" type="line"/>
      <point x="399" y="-6"/>
      <point x="379" y="46"/>
      <point x="379" y="381" type="curve" smooth="yes"/>
      <point x="379" y="563"/>
      <point x="341" y="676"/>
      <point x="212" y="707" type="curve"/>
      <point x="341" y="738"/>
      <point x="379" y="851"/>
      <point x="379" y="1033" type="curve" smooth="yes"/>
      <point x="379" y="1368"/>
      <point x="399" y="1420"/>
      <point x="624" y="1420" type="curve"/>
      <point x="624" y="1544" type="line"/>
      <point x="231" y="1544"/>
      <point x="166" y="1414"/>
      <point x="166" y="1043" type="curve" smooth="yes"/>
      <point x="166" y="1039.9"/>
      <point x="166.001" y="1036.8"/>
      <point x="166.001" y="1033.7" type="curve" smooth="yes"/>
      <point x="166.001" y="906.006"/>
      <point x="164.095" y="783.716"/>
      <point x="3" y="772" type="curve"/>
      <point x="3" y="642" type="line"/>
      <point x="164.095" y="630.284"/>
      <point x="166.001" y="507.994"/>
      <point x="166.001" y="380.295" type="curve" smooth="yes"/>
      <point x="166.001" y="377.2"/>
      <point x="166" y="374.101"/>
      <point x="166" y="371" type="curve" smooth="yes"/>
      <point x="166" y="0"/>
      <point x="231" y="-130"/>
    </contour>
  </outline>
</glyph>
<glyph name="bar" format="1">
  <advance width="416"/>
  <unicode hex="007C"/>
  <outline>
    <contour>
      <point x="111" y="-197" type="line"/>
      <point x="316" y="-197" type="line"/>
      <point x="316" y="1502" type="line"/>
      <point x="111" y="1502" type="line"/>
    </contour>
  </outline>
</glyph>
<glyph name="acute" format="1">
  <advance width="496"/>
  <unicode hex="00B4"/>
  <outline>
    <contour>
      <point x="118" y="1023" type="move" name="_top"/>
    </contour>
    <contour>
      <point x="19" y="1146" type="line"/>
      <point x="151" y="1146" type="line"/>
      <point x="493" y="1466" type="line"/>
      <point x="222" y="1466" type="line"/>
    </contour>
  </outline>
</glyph>
<glyph name="cedilla" format="1">
  <advance width="435"/>
  <unicode hex="00B8"/>
  <outline>
    <contour>
      <point x="317" y="-113" type="curve" smooth="yes"/>
      <point x="268" y="0" type="line"/>
      <point x="179" y="0" type="line"/>
      <point x="208" y="-118" type="line" smooth="yes"/>
      <point x="215.963" y="-150.4"/>
      <point x="219.566" y="-177.644"/>
      <point x="219.566" y="-200.499" type="curve" smooth="yes"/>
      <point x="219.566" y="-292.011"/>
      <point x="161.802" y="-313.16"/>
      <point x="94.8335" y="-313.16" type="curve" smooth="yes"/>
      <point x="67.6565" y="-313.16"/>
      <point x="38.9635" y="-309.677"/>
      <point x="12" y="-306" type="curve"/>
      <point x="12" y="-395" type="line"/>
      <point x="55.9397" y="-410.165"/>
      <point x="98.0212" y="-417.303"/>
      <point x="136.587" y="-417.303" type="curve" smooth="yes"/>
      <point x="258.006" y="-417.303"/>
      <point x="344.577" y="-346.555"/>
      <point x="344.577" y="-232.832" type="curve" smooth="yes"/>
      <point x="344.577" y="-196.888"/>
      <point x="335.929" y="-156.652"/>
    </contour>
  </outline>
</glyph>
<glyph name="guillemotright" format="1">
  <advance width="946"/>
  <unicode hex="00BB"/>
  <outline>
    <contour>
      <point x="5" y="234" type="line"/>
      <point x="458" y="511" type="line"/>
      <point x="458" y="788" type="line"/>
      <point x="5" y="1065" type="line"/>
      <point x="5" y="867" type="line"/>
      <point x="320" y="650" type="line"/>
      <point x="5" y="431" type="line"/>
    </contour>
    <contour>
      <point x="485" y="234" type="line"/>
      <point x="938" y="511" type="line"/>
      <point x="938" y="788" type="line"/>
      <point x="485" y="1065" type="line"/>
      <point x="485" y="867" type="line"/>
      <point x="800" y="650" type="line"/>
      <point x="485" y="431" type="line"/>
    </contour>
  </outline>
</glyph>
<glyph name="onequarter" format="1">
  <advance width="1403"/>
  <unicode hex="00BC"/>
  <outline>
    <contour>
      <point x="1110" y="0" type="line"/>
      <point x="1264" y="0" type="line"/>
      <point x="1264" y="127" type="line"/>
      <point x="1370" y="127" type="line"/>
      <point x="1370" y="241" type="line"/>
      <point x="1264" y="241" type="line"/>
      <point x="1264" y="693" type="line"/>
      <point x="1063" y="693" type="line"/>
      <point x="767" y="220" type="line"/>
      <point x="767" y="127" type="line"/>
      <point x="1110" y="127" type="line"/>
    </contour>
    <contour>
      <point x="196" y="769" type="line"/>
      <point x="353" y="769" type="line"/>
      <point x="353" y="1464" type="line"/>
      <point x="210" y="1464" type="line"/>
      <point x="54" y="1391" type="line"/>
      <point x="83" y="1266" type="line"/>
      <point x="196" y="1326" type="line"/>
    </contour>
    <contour>
      <point x="148" y="-14" type="line"/>
      <point x="1383" y="1415" type="line"/>
      <point x="1275" y="1507" type="line"/>
      <point x="39" y="78" type="line"/>
    </contour>
    <contour>
      <point x="926" y="241" type="line"/>
      <point x="1110" y="551" type="line"/>
      <point x="1110" y="241" type="line"/>
    </contour>
  </outline>
</glyph>
<glyph name="Thorn" format="1">
  <advance width="1261"/>
  <unicode hex="00DE"/>
  <outline>
    <contour>
      <point x="140" y="0" type="line"/>
      <point x="360" y="0" type="line"/>
      <point x="360" y="335" type="line"/>
      <point x="513" y="335" type="line" smooth="yes"/>
      <point x="1037" y="335"/>
      <point x="1220" y="448"/>
      <point x="1220" y="779" type="curve" smooth="yes"/>
      <point x="1220" y="1068"/>
      <point x="1048" y="1202"/>
      <point x="572" y="1202" type="curve" smooth="yes"/>
      <point x="360" y="1202" type="line"/>
      <point x="360" y="1464" type="line"/>
      <point x="140" y="1464" type="line"/>
    </contour>
    <contour>
      <point x="360" y="494" type="line"/>
      <point x="360" y="1042" type="line"/>
      <point x="549" y="1042" type="line" smooth="yes"/>
      <point x="877" y="1042"/>
      <point x="1012" y="990"/>
      <point x="1012" y="777" type="curve" smooth="yes"/>
      <point x="1012" y="538"/>
      <point x="878" y="494"/>
      <point x="569" y="494" type="curve" smooth="yes"/>
    </contour>
  </outline>
</glyph>
<glyph name="divide" format="1">
  <advance width="1024"/>
  <unicode hex="00F7"/>
  <outline>
    <contour>
      <point x="346" y="171" type="line"/>
      <point x="589" y="171" type="line"/>
      <point x="589" y="393" type="line"/>
      <point x="346" y="393" type="line"/>
    </contour>
    <contour>
      <point x="94" y="532" type="line"/>
      <point x="844" y="532" type="line"/>
      <point x="844" y="665" type="line"/>
      <point x="94" y="665" type="line"/>
    </contour>
    <contour>
      <point x="346" y="800" type="line"/>
      <point x="589" y="800" type="line"/>
      <point x="589" y="1024" type="line"/>
      <point x="346" y="1024" type="line"/>
    </contour>
  </outline>
</glyph>
<glyph name="oslash" format="1">
  <advance width="1104"/>
  <unicode hex="00F8"/>
  <outline>
    <component base="o"/>
    <contour>
      <point x="284" y="-199" type="line"/>
      <point x="935" y="1176" type="line"/>
      <point x="835" y="1229" type="line"/>
      <point x="182" y="-146" type="line"/>
    </contour>
  </outline>
</glyph>
<glyph name="dcroat" format="1">
  <advance width="1137"/>
  <unicode hex="0111"/>
  <outline>
    <component base="d"/>
    <contour>
      <point x="586" y="1181" type="line"/>
      <point x="1130" y="1181" type="line"/>
      <point x="1130" y="1301" type="line"/>
      <point x="586" y="1301" type="line"/>
    </contour>
  </outline>
</glyph>
<glyph name="dotlessi" format="1">
  <advance width="447"/>
  <unicode hex="0131"/>
  <outline>
    <contour>
      <point x="232" y="1023" type="move" name="top"/>
    </contour>
    <contour>
      <point x="138" y="0" type="line"/>
      <point x="336" y="0" type="line"/>
      <point x="336" y="1023" type="line"/>
      <point x="138" y="1023" type="line"/>
    </contour>
  </outline>
</glyph>
<glyph name="eng" format="1">
  <advance width="1126"/>
  <unicode hex="014B"/>
  <outline>
    <contour>
      <point x="540" y="-410" type="line"/>
      <point x="824" y="-409"/>
      <point x="1010" y="-297"/>
      <point x="1010" y="-24" type="curve" smooth="yes"/>
      <point x="1010" y="593" type="line" smooth="yes"/>
      <point x="1010" y="798"/>
      <point x="973" y="1046"/>
      <point x="650" y="1046" type="curve" smooth="yes"/>
      <point x="499" y="1046"/>
      <point x="392" y="989"/>
      <point x="323" y="884" type="curve"/>
      <point x="323" y="1023" type="line"/>
      <point x="125" y="1023" type="line"/>
      <point x="125" y="0" type="line"/>
      <point x="323" y="0" type="line"/>
      <point x="323" y="506" type="line"/>
      <point x="325" y="704"/>
      <point x="391" y="906"/>
      <point x="613" y="906" type="curve" smooth="yes"/>
      <point x="767" y="906"/>
      <point x="812" y="800"/>
      <point x="812" y="599" type="curve" smooth="yes"/>
      <point x="812" y="-22" type="line" smooth="yes"/>
      <point x="812" y="-169"/>
      <point x="748" y="-259"/>
      <point x="543" y="-261" type="curve"/>
    </contour>
  </outline>
</glyph>
<glyph name="uni0237" format="1">
  <advance width="507"/>
  <unicode hex="0237"/>
  <outline>
    <contour>
      <point x="301" y="1023" type="move" name="top"/>
    </contour>
    <contour>
      <point x="135" y="-369" type="curve" smooth="yes"/>
      <point x="323" y="-369"/>
      <point x="397" y="-287"/>
      <point x="397" y="-36" type="curve" smooth="yes"/>
      <point x="397" y="1023" type="line"/>
      <point x="199" y="1023" type="line"/>
      <point x="199" y="-91" type="line" smooth="yes"/>
      <point x="199" y="-178"/>
      <point x="159" y="-207"/>
      <point x="104" y="-207" type="curve" smooth="yes"/>
      <point x="64" y="-207"/>
      <point x="23" y="-194"/>
      <point x="-16" y="-176" type="curve"/>
      <point x="-54" y="-324" type="line"/>
      <point x="-8" y="-351"/>
      <point x="64" y="-369"/>
    </contour>
  </outline>
</glyph>
<glyph name="caron" format="1">
  <advance width="838"/>
  <unicode hex="02C7"/>
  <outline>
    <contour>
      <point x="419" y="1023" type="move" name="_top"/>
    </contour>
    <contour>
      <point x="305" y="1154" type="line"/>
      <point x="544" y="1154" type="line"/>
      <point x="705" y="1474" type="line"/>
      <point x="572" y="1474" type="line"/>
      <point x="424" y="1249" type="line"/>
      <point x="277" y="1474" type="line"/>
      <point x="144" y="1474" type="line"/>
    </contour>
  </outline>
</glyph>
<glyph name="breve" format="1">
  <advance width="805"/>
  <unicode hex="02D8"/>
  <outline>
    <contour>
      <point x="402.5" y="1023" type="move" name="_top"/>
    </contour>
    <contour>
      <point x="401" y="1207" type="curve" smooth="yes"/>
      <point x="540" y="1207"/>
      <point x="676" y="1283"/>
      <point x="680" y="1479" type="curve"/>
      <point x="518" y="1479" type="line"/>
      <point x="518" y="1404"/>
      <point x="497" y="1352"/>
      <point x="401" y="1352" type="curve" smooth="yes"/>
      <point x="306" y="1352"/>
      <point x="285" y="1404"/>
      <point x="285" y="1479" type="curve"/>
      <point x="123" y="1479" type="line"/>
      <point x="127" y="1283"/>
      <point x="262" y="1207"/>
    </contour>
  </outline>
</glyph>
<glyph name="pi" format="1">
  <advance width="1350"/>
  <unicode hex="03C0"/>
  <outline>
    <contour>
      <point x="1083" y="-13" type="curve" smooth="yes"/>
      <point x="1157" y="-13"/>
      <point x="1221" y="10"/>
      <point x="1254" y="42" type="curve"/>
      <point x="1254" y="166" type="line"/>
      <point x="1227" y="156"/>
      <point x="1170" y="131"/>
      <point x="1131" y="131" type="curve" smooth="yes"/>
      <point x="1054" y="131"/>
      <point x="1012" y="227"/>
      <point x="1012" y="435" type="curve" smooth="yes"/>
      <point x="1012" y="548"/>
      <point x="1023" y="688"/>
      <point x="1048" y="863" type="curve"/>
      <point x="1276" y="863" type="line"/>
      <point x="1276" y="1023" type="line"/>
      <point x="417" y="1023" type="line" smooth="yes"/>
      <point x="187" y="1023"/>
      <point x="116" y="945"/>
      <point x="116" y="735" type="curve"/>
      <point x="208" y="735" type="line"/>
      <point x="220" y="809"/>
      <point x="258" y="863"/>
      <point x="336" y="863" type="curve" smooth="yes"/>
      <point x="458" y="863" type="line"/>
      <point x="397" y="375" type="line" smooth="yes"/>
      <point x="371" y="165"/>
      <point x="250" y="108"/>
      <point x="127" y="108" type="curve"/>
      <point x="127" y="3" type="line"/>
      <point x="462" y="3"/>
      <point x="530" y="101"/>
      <point x="540" y="313" type="curve" smooth="yes"/>
      <point x="565" y="863" type="line"/>
      <point x="927" y="863" type="line"/>
      <point x="898" y="641"/>
      <point x="858" y="430"/>
      <point x="858" y="273" type="curve" smooth="yes"/>
      <point x="858" y="99"/>
      <point x="908" y="-13"/>
    </contour>
  </outline>
</glyph>
<glyph name="quoteright" format="1">
  <advance width="330"/>
  <unicode hex="2019"/>
  <outline>
    <contour>
      <point x="153" y="951" type="line"/>
      <point x="343" y="1083"/>
      <point x="315" y="1294"/>
      <point x="319" y="1504" type="curve"/>
      <point x="81" y="1504" type="line"/>
      <point x="81" y="1303" type="line" smooth="yes"/>
      <point x="81" y="1302"/>
      <point x="186" y="1281"/>
      <point x="186" y="1282" type="curve"/>
      <point x="182" y="1142"/>
      <point x="123" y="1054"/>
      <point x="94" y="1027" type="curve"/>
    </contour>
  </outline>
</glyph>
<glyph name="quotesinglbase" format="1">
  <advance width="436"/>
  <unicode hex="201A"/>
  <outline>
    <contour>
      <point x="156" y="-422" type="line"/>
      <point x="343" y="-290"/>
      <point x="339" y="-77"/>
      <point x="344" y="133" type="curve"/>
      <point x="110" y="133" type="line"/>
      <point x="110" y="-70" type="line" smooth="yes"/>
      <point x="110" y="-71"/>
      <point x="186" y="-91"/>
      <point x="186" y="-91" type="curve"/>
      <point x="183" y="-232"/>
      <point x="123" y="-322"/>
      <point x="94" y="-349" type="curve"/>
    </contour>
  </outline>
</glyph>
<glyph name="quotedblleft" format="1">
  <advance width="630"/>
  <unicode hex="201C"/>
  <outline>
    <contour>
      <point x="-15" y="954" type="line"/>
      <point x="224" y="954" type="line"/>
      <point x="224" y="1174" type="line"/>
      <point x="110" y="1191" type="line"/>
      <point x="114" y="1333"/>
      <point x="176" y="1413"/>
      <point x="205" y="1440" type="curve"/>
      <point x="145" y="1514" type="line"/>
      <point x="-12" y="1404"/>
      <point x="-15" y="1241"/>
      <point x="-15" y="1059" type="curve" smooth="yes"/>
    </contour>
    <contour>
      <point x="340" y="954" type="line"/>
      <point x="579" y="954" type="line"/>
      <point x="579" y="1174" type="line"/>
      <point x="459" y="1190" type="line"/>
      <point x="462" y="1333"/>
      <point x="524" y="1413"/>
      <point x="553" y="1440" type="curve"/>
      <point x="494" y="1514" type="line"/>
      <point x="337" y="1402"/>
      <point x="346" y="1243"/>
      <point x="340" y="1059" type="curve"/>
    </contour>
  </outline>
</glyph>
<glyph name="quotedblright" format="1">
  <advance width="631"/>
  <unicode hex="201D"/>
  <outline>
    <contour>
      <point x="123" y="951" type="line"/>
      <point x="311" y="1083"/>
      <point x="284" y="1294"/>
      <point x="288" y="1504" type="curve"/>
      <point x="49" y="1504" type="line"/>
      <point x="49" y="1303" type="line" smooth="yes"/>
      <point x="49" y="1302"/>
      <point x="154" y="1281"/>
      <point x="154" y="1282" type="curve"/>
      <point x="150" y="1142"/>
      <point x="91" y="1051"/>
      <point x="60" y="1025" type="curve"/>
    </contour>
    <contour>
      <point x="471" y="951" type="line"/>
      <point x="657" y="1082"/>
      <point x="641" y="1295"/>
      <point x="646" y="1504" type="curve"/>
      <point x="408" y="1504" type="line"/>
      <point x="408" y="1303" type="line"/>
      <point x="503" y="1281" type="line"/>
      <point x="499" y="1139"/>
      <point x="438" y="1049"/>
      <point x="409" y="1025" type="curve"/>
    </contour>
  </outline>
</glyph>
<glyph name="quotedblbase" format="1">
  <advance width="744"/>
  <unicode hex="201E"/>
  <outline>
    <contour>
      <point x="123" y="-422" type="line"/>
      <point x="310" y="-290"/>
      <point x="307" y="-77"/>
      <point x="311" y="133" type="curve"/>
      <point x="75" y="133" type="line"/>
      <point x="75" y="-70" type="line"/>
      <point x="74" y="-71"/>
      <point x="153" y="-91"/>
      <point x="153" y="-91" type="curve"/>
      <point x="150" y="-232"/>
      <point x="90" y="-322"/>
      <point x="61" y="-349" type="curve"/>
    </contour>
    <contour>
      <point x="493" y="-422" type="line"/>
      <point x="680" y="-290"/>
      <point x="676" y="-77"/>
      <point x="681" y="133" type="curve"/>
      <point x="445" y="133" type="line"/>
      <point x="445" y="-70" type="line" smooth="yes"/>
      <point x="445" y="-71"/>
      <point x="523" y="-91"/>
      <point x="523" y="-91" type="curve"/>
      <point x="520" y="-232"/>
      <point x="460" y="-322"/>
      <point x="431" y="-349" type="curve"/>
    </contour>
  </outline>
</glyph>
<glyph name="dagger" format="1">
  <advance width="1117"/>
  <unicode hex="2020"/>
  <outline>
    <contour>
      <point x="461" y="0" type="line"/>
      <point x="671" y="0" type="line"/>
      <point x="671" y="938" type="line"/>
      <point x="996" y="938" type="line"/>
      <point x="996" y="1098" type="line"/>
      <point x="671" y="1098" type="line"/>
      <point x="671" y="1464" type="line"/>
      <point x="461" y="1464" type="line"/>
      <point x="461" y="1098" type="line"/>
      <point x="121" y="1098" type="line"/>
      <point x="121" y="938" type="line"/>
      <point x="461" y="938" type="line"/>
    </contour>
  </outline>
</glyph>
<glyph name="Euro" format="1">
  <advance width="1275"/>
  <unicode hex="20AC"/>
  <outline>
    <component base="C"/>
    <contour>
      <point x="-52" y="531" type="line"/>
      <point x="682" y="531" type="line"/>
      <point x="682" y="665" type="line"/>
      <point x="-52" y="665" type="line"/>
    </contour>
    <contour>
      <point x="-52" y="786" type="line"/>
      <point x="682" y="786" type="line"/>
      <point x="682" y="920" type="line"/>
      <point x="-52" y="920" type="line"/>
    </contour>
  </outline>
</glyph>
<glyph name="Delta" format="1">
  <advance width="1289"/>
  <unicode hex="2206"/>
  <outline>
    <contour>
      <point x="65" y="0" type="line"/>
      <point x="1218" y="0" type="line"/>
      <point x="1218" y="85" type="line"/>
      <point x="743" y="1537" type="line"/>
      <point x="571" y="1537" type="line"/>
      <point x="65" y="85" type="line"/>
    </contour>
    <contour>
      <point x="241" y="181" type="line"/>
      <point x="604" y="1273" type="line"/>
      <point x="636" y="1391" type="line"/>
      <point x="758.085" y="982.418"/>
      <point x="891.435" y="585.101"/>
      <point x="1018" y="181" type="curve"/>
    </contour>
  </outline>
</glyph>
<glyph name="product" format="1">
  <advance width="1379"/>
  <unicode hex="220F"/>
  <outline>
    <contour>
      <point x="139" y="0" type="line"/>
      <point x="344" y="0" type="line"/>
      <point x="344" y="1310" type="line"/>
      <point x="1035" y="1310" type="line"/>
      <point x="1035" y="0" type="line"/>
      <point x="1240" y="0" type="line"/>
      <point x="1240" y="1464" type="line"/>
      <point x="139" y="1464" type="line"/>
    </contour>
  </outline>
</glyph>
